<?xml version="1.0" encoding="UTF-8" standalone="no"?>
<!-- Created with Inkscape (http://www.inkscape.org/) -->

<svg
   xmlns:dc="http://purl.org/dc/elements/1.1/"
   xmlns:cc="http://creativecommons.org/ns#"
   xmlns:rdf="http://www.w3.org/1999/02/22-rdf-syntax-ns#"
   xmlns:svg="http://www.w3.org/2000/svg"
   xmlns="http://www.w3.org/2000/svg"
   xmlns:sodipodi="http://sodipodi.sourceforge.net/DTD/sodipodi-0.dtd"
   xmlns:inkscape="http://www.inkscape.org/namespaces/inkscape"
   id="svg3055"
   version="1.1"
   inkscape:version="0.48.2 r9819"
   width="317"
   height="150"
   sodipodi:docname="link.png">
  <metadata
     id="metadata3061">
    <rdf:RDF>
      <cc:Work
         rdf:about="">
        <dc:format>image/svg+xml</dc:format>
        <dc:type
           rdf:resource="http://purl.org/dc/dcmitype/StillImage" />
        <dc:title></dc:title>
      </cc:Work>
    </rdf:RDF>
  </metadata>
  <defs
     id="defs3059" />
  <sodipodi:namedview
     pagecolor="#ffffff"
     bordercolor="#666666"
     borderopacity="1"
     objecttolerance="10"
     gridtolerance="10"
     guidetolerance="10"
     inkscape:pageopacity="0"
     inkscape:pageshadow="2"
     inkscape:window-width="1616"
     inkscape:window-height="957"
     id="namedview3057"
     showgrid="false"
     inkscape:zoom="1.2585826"
     inkscape:cx="141.78846"
     inkscape:cy="18.817215"
     inkscape:window-x="68"
     inkscape:window-y="0"
     inkscape:window-maximized="0"
     inkscape:current-layer="svg3055" />
  <rect
     style="fill:#e4e6e6;fill-opacity:1"
     id="rect3858"
     width="151.7153"
     height="132.56958"
     x="86.58287"
     y="11.048507" />
  <path
     inkscape:connector-curvature="0"
     id="path3073"
     d="m 0,0 c 316.80142,0.05854353 317,0 317,0 0,0 0.3221,0.34587174 0,150 -316.93328019,0.0994 -0.54227,0.15734 -317,0 C -0.13549398,0.24346787 0.22066566,149.95612 0,0 z m 140.50001,130.04039 c 5.15945,-2.21367 15.09943,-11.30827 15.91621,-14.56255 0.63409,-2.52642 -0.75761,-6.33816 -2.81591,-7.71253 -2.99668,-2.00093 -6.93456,-0.6605 -12.20173,4.1534 -8.23239,7.52394 -15.5877,8.04673 -21.32218,1.51551 -3.703,-4.21748 -4.14757,-9.96856 -1.14532,-14.816198 2.55865,-4.13138 26.71577,-26.866933 30.77983,-28.968539 4.19365,-2.16862 7.12936,-2.073249 10.7891,0.350501 3.83908,2.542524 7.95748,2.542524 10.5,0 6.30032,-6.300322 -3.21906,-16.000909 -15.70034,-15.999211 -10.29479,0.0014 -16.27907,3.731078 -33.34245,20.780554 -8.10186,8.095261 -15.46834,16.181441 -16.36994,17.969281 -7.982777,15.829542 1.23876,35.308512 18.38624,38.837932 6.35286,1.30759 10.85311,0.88602 16.52649,-1.54815 z m 36.5,-35.883258 c 2.64354,-1.35443 10.98268,-8.75284 20.21382,-17.933522 17.62955,-17.533184 19.98618,-21.238831 19.98618,-31.426927 0,-10.490546 -6.69284,-20.473081 -16.69168,-24.896041 -11.04886,-4.887438 -19.39497,-3.03734 -29.36943,6.510382 -7.54109,7.218462 -8.70905,9.585708 -6.67249,13.52398 3.08414,5.964075 7.09801,5.447437 15.0336,-1.93502 5.44333,-5.063913 7.02013,-6 10.10674,-6 4.17615,0 9.438,2.893146 11.78979,6.482428 0.89797,1.370472 1.60347,4.519598 1.60347,7.157352 0,4.710146 0,4.710146 -14.67711,19.505285 -18.57907,18.728479 -21.59875,20.321931 -28.99697,15.301364 -4.26825,-2.896511 -7.72211,-2.665621 -10.57592,0.706996 -3.61571,4.273031 -0.8325,9.530968 7.49311,14.155733 4.54368,2.52394 14.68028,1.96136 20.75689,-1.15201 z"
     style="fill:#0a2933;fill-opacity:1"
     sodipodi:nodetypes="cccccsssssssssssssssssssssssssssss" />
  <g
     inkscape:groupmode="layer"
     id="layer1"
     inkscape:label="Layer" />
</svg>
