<svg xmlns="http://www.w3.org/2000/svg" width="317" height="150"><rect width="151.715" height="132.57" x="86.583" y="11.049" fill="#e4e6e6"/><path d="M0 0c316.801.059 317 0 317 0s.322.346 0 150c-316.933.099-.542.157-317 0-.135-149.757.221-.044 0-150zm140.5 130.04c5.159-2.214 15.099-11.308 15.916-14.563.634-2.526-.758-6.338-2.816-7.713-2.997-2.001-6.935-.66-12.202 4.153-8.232 7.524-15.588 8.047-21.322 1.516-3.703-4.217-4.148-9.969-1.145-14.816 2.559-4.131 26.716-26.867 30.78-28.969 4.194-2.169 7.129-2.073 10.789.351 3.839 2.543 7.957 2.543 10.5 0 6.3-6.3-3.219-16.001-15.7-15.999-10.295.001-16.279 3.731-33.342 20.781-8.102 8.095-15.468 16.181-16.37 17.969-7.983 15.83 1.239 35.309 18.386 38.838 6.353 1.308 10.853.886 16.526-1.548zm36.5-35.883c2.644-1.354 10.983-8.753 20.214-17.934 17.63-17.533 19.986-21.239 19.986-31.427 0-10.491-6.693-20.473-16.692-24.896-11.049-4.887-19.395-3.037-29.369 6.51-7.541 7.218-8.709 9.586-6.672 13.524 3.084 5.964 7.098 5.447 15.034-1.935 5.443-5.064 7.02-6 10.107-6 4.176 0 9.438 2.893 11.79 6.482.898 1.37 1.603 4.52 1.603 7.157 0 4.71 0 4.71-14.677 19.505-18.579 18.728-21.599 20.322-28.997 15.301-4.268-2.897-7.722-2.666-10.576.707-3.616 4.273-.833 9.531 7.493 14.156 4.544 2.524 14.68 1.961 20.757-1.152z" fill="#073642"/></svg>